<svg xmlns="http://www.w3.org/2000/svg" viewBox="0 0 56.38 73.86"><defs><style>.cls-1,.cls-5{fill:#fff;}.cls-1{stroke:#000;stroke-miterlimit:10;stroke-width:0.25px;}.cls-2{fill:#616161;}.cls-3{fill:#e0e0e0;}.cls-4{fill:#b59074;}.cls-6{fill:#ae7c7a;}</style></defs><title>sheep</title><g id="Layer_2" data-name="Layer 2"><g id="la_trapp" data-name="la trapp"><rect class="cls-1" x="7.86" y="26.94" width="39.64" height="40.14"/><rect class="cls-2" x="34.64" y="40.97" width="10.01" height="6.25"/><rect class="cls-3" x="12.61" y="29.44" width="34.64" height="35.08"/><rect class="cls-4" x="15.4" y="36.2" width="29.05" height="15.9"/><rect class="cls-4" x="20.12" y="52.09" width="20.41" height="9.94"/><rect class="cls-2" x="15.4" y="40.97" width="10.8" height="6.65"/><rect class="cls-2" x="34.05" y="40.97" width="10.4" height="6.65"/><rect class="cls-5" x="15.4" y="40.97" width="6.17" height="6.65"/><rect class="cls-5" x="34.05" y="40.97" width="6.37" height="6.65"/><rect class="cls-6" x="25.22" y="52.09" width="9.81" height="9.94"/><polygon points="0.34 73.52 7.86 73.69 7.86 26.73 0 35.01 0.34 73.52"/><polygon points="42.13 73.86 7.35 73.69 7.35 66.56 47.69 66.56 42.13 73.86"/><polygon class="cls-5" points="48.8 7.98 48.8 10.75 42 10.75 42 0.15 48.8 0.15 48.8 2.92 45.19 2.92 45.19 4.58 46.79 4.58 46.79 6.32 45.19 6.32 45.19 7.98 48.8 7.98"/><path d="M48.8,11V8.23H45.19V6.57h1.6V4.83h-1.6V3.17H48.8V.4H42V11ZM48.93.25V3.3L47.48,5h-.55V6.7L45.82,8.08h3.11v3.05l-1.45,1.74H40.41V2.12L41.87.25Z" transform="translate(0 -0.25)"/><polygon class="cls-5" points="35.98 5.13 35.98 0.15 39.17 0.15 39.17 10.75 35.98 10.75 35.98 8.59 34.17 5.42 34.17 10.75 30.98 10.75 30.98 0.15 33.27 0.15 35.98 5.13"/><path d="M36,11h3.19V.4H36v5L33.27.4H31V11h3.19V5.67L36,8.84ZM35.84.25H39.3V11.13l-1.45,1.74H34V11.48l-1.18,1.39h-3.4V2.12L30.85.25h2.57l1,1.87Z" transform="translate(0 -0.25)"/><rect x="23.63" y="2.84" width="1.31" height="5"/><path class="cls-5" d="M23.63,8.09h1.31v-5H23.63ZM28.13,11H20.44V.4h7.69Z" transform="translate(0 -0.25)"/><path d="M26.81,12.87h-8V2.12L20.3.25h8V11.13ZM20.44.4V11h7.69V.4Z" transform="translate(0 -0.25)"/><polygon class="cls-5" points="17.89 7.98 17.89 10.75 11.15 10.75 11.15 0.15 14.34 0.15 14.34 7.98 17.89 7.98"/><path d="M17.89,11V8.23H14.34V.4H11.15V11ZM18,8.08v3.05l-1.45,1.74h-7V2.12L11,.25h3.47V8.08Z" transform="translate(0 -0.25)"/><polygon points="52.77 16.07 52.77 17.73 51.34 18.43 51.34 16.07 52.77 16.07"/><path class="cls-5" d="M52.77,18V16.32H51.34v2.36ZM47.9,13.62h8.32v5.67l-4.87,2.43v2.5H47.9Z" transform="translate(0 -0.25)"/><path d="M56.22,19.29V13.62H47.9v10.6h3.45v-2.5Zm.16-5.82v5.82l-1.74,1.88-3.12,1.55v1.62l-1.66,1.75H46.19V15.34l1.57-1.87Z" transform="translate(0 -0.25)"/><polygon class="cls-5" points="44.91 23.97 37.56 23.97 37.56 13.37 44.91 13.37 44.91 16.14 41.01 16.14 41.01 17.8 42.73 17.8 42.73 19.54 41.01 19.54 41.01 21.2 44.91 21.2 44.91 23.97"/><path d="M37.56,24.22h7.35V21.45H41V19.79h1.73V18.05H41V16.39h3.9V13.62H37.56ZM45,16.52l-1.57,1.74h-.59v1.66l-1.2,1.38H45v3.05l-1.57,1.74H35.85V15.34l1.57-1.87H45Z" transform="translate(0 -0.25)"/><polygon class="cls-5" points="34.56 23.97 27.22 23.97 27.22 13.37 34.56 13.37 34.56 16.14 30.66 16.14 30.66 17.8 32.39 17.8 32.39 19.54 30.66 19.54 30.66 21.2 34.56 21.2 34.56 23.97"/><path d="M33.14,18.26h-.59v1.66l-1.2,1.38h3.36v3.05l-1.57,1.74H25.51V15.34l1.57-1.87h7.63v3.05Zm-5.92,6h7.35V21.45h-3.9V19.79h1.73V18.05H30.66V16.39h3.9V13.62H27.22Z" transform="translate(0 -0.25)"/><polygon class="cls-5" points="20.7 17.88 20.7 13.37 24.15 13.37 24.15 23.97 20.7 23.97 20.7 19.6 19.28 19.6 19.28 23.97 15.83 23.97 15.83 13.37 19.28 13.37 19.28 17.88 20.7 17.88"/><path d="M24.15,24.22V13.62H20.7v4.51H19.28V13.62H15.83v10.6h3.45V19.85H20.7v4.37Zm.16-10.75V24.35l-1.59,1.74H19V24.7l-1.27,1.39H14.12V15.34l1.57-1.87h3.75V15l1.11-1.53Z" transform="translate(0 -0.25)"/><polygon class="cls-5" points="11.94 13.37 11.94 16.07 7.9 16.07 7.9 17.59 12.77 17.59 12.77 21.54 10.37 23.97 4.45 23.97 4.45 21.06 9.33 21.06 9.33 19.33 4.45 19.33 4.45 15.69 6.6 13.37 11.94 13.37"/><path d="M12.77,21.79V17.84H7.9V16.32h4v-2.7H6.6L4.45,15.94v3.64H9.33v1.73H4.45v2.91h5.92ZM2.66,17.63l3.82-4.16h5.61v2.85L11,17.71h1.93v4.16L9.13,26.09H2.66v-2.9l1.5-1.88H2.66Z" transform="translate(0 -0.25)"/></g></g></svg>